# xmcd
#
# Track frame offsets: 
#        150
#        14638
#        24625
#        38661
#        49153
#        64157
#        77723
#        91633
#        105771
#        118830
#        128712
#        139198
#        149931
#        162148
#        173980
#        186530
#        197141
#        207872
#        220375
#        232566
#        242626
#        253132
#        263600
#        274494
#        285861
#        299786
#
# Disc length: 4139 seconds
#
# Revision: 0
# Processed by: cddbd v1.5.2PL0 Copyright (c) Steve Scherf et al.
# Submitted via: ExactAudioCopy v1.3
#
DISCID=8910291a
DTITLE=B. J. Thomas - I'm So Lonesome I Could Cry , Tomorrow Never Com
DTITLE=es
DYEAR=2009
DGENRE=Country
TTITLE0=I'm So Lonesome I Could Cry
TTITLE1=It's Not Unusual
TTITLE2=Bring Back The Time
TTITLE3=Midnight Hour
TTITLE4=The Titles Tell
TTITLE5=There'll Be No Teardrops Tonight
TTITLE6=I Wonder
TTITLE7=Hey Girl
TTITLE8=Mama
TTITLE9=Wendy
TTITLE10=Terri
TTITLE11=Maria
TTITLE12=Plain Jane
TTITLE13=Ashes Of Dreams You Let Die
TTITLE14=Tomorrow Never Comes
TTITLE15=Baby Cried
TTITLE16=Mystery Of Tomorrow
TTITLE17=Daddy
TTITLE18=The Rains Came
TTITLE19=I Don't Have A Mind Of My Own
TTITLE20=Walkin' Back
TTITLE21=My Home Town
TTITLE22=Gonna Send You Back To Georgia
TTITLE23=Candy Baby
TTITLE24=Your Tears Leave Me Cold
TTITLE25=I'm Not A Fool Anymore
EXTD=
EXTT0=
EXTT1=
EXTT2=
EXTT3=
EXTT4=
EXTT5=
EXTT6=
EXTT7=
EXTT8=
EXTT9=
EXTT10=
EXTT11=
EXTT12=
EXTT13=
EXTT14=
EXTT15=
EXTT16=
EXTT17=
EXTT18=
EXTT19=
EXTT20=
EXTT21=
EXTT22=
EXTT23=
EXTT24=
EXTT25=
PLAYORDER=
